<svg width="114" height="88" viewBox="0 0 114 88" fill="none" xmlns="http://www.w3.org/2000/svg">
<path d="M0 42C0 37.5817 3.58172 34 8 34H100V54H8C3.58172 54 0 50.4183 0 46V42Z" fill="#EBEBEB"/>
<path d="M63.6569 82.0832C60.5327 78.9591 60.5327 73.8937 63.6569 70.7695L100.426 34L111.74 45.3137L74.9706 82.0832C71.8464 85.2074 66.781 85.2074 63.6569 82.0832V82.0832Z" fill="#EBEBEB"/>
<path d="M63.6569 5.65685C66.7811 2.53266 71.8464 2.53266 74.9706 5.65685L111.74 42.4264L100.426 53.7401L63.6569 16.9706C60.5327 13.8464 60.5327 8.78105 63.6569 5.65685V5.65685Z" fill="#EBEBEB"/>
<rect x="110.1" y="43.9" width="2.2" height="2.15947" transform="rotate(-45 110.1 43.9)" fill="#EBEBEB"/>
</svg>
