<svg width="114" height="88" viewBox="0 0 114 88" fill="none" xmlns="http://www.w3.org/2000/svg">
<path d="M113.183 42C113.183 37.5817 109.601 34 105.183 34H13.1826V54H105.183C109.601 54 113.183 50.4183 113.183 46V42Z" fill="#EBEBEB"/>
<path d="M49.5258 82.0832C52.65 78.9591 52.65 73.8937 49.5258 70.7695L12.7562 34L1.4425 45.3137L38.2121 82.0832C41.3362 85.2074 46.4016 85.2074 49.5258 82.0832V82.0832Z" fill="#EBEBEB"/>
<path d="M49.5258 5.65685C46.4016 2.53266 41.3362 2.53266 38.212 5.65685L1.44249 42.4264L12.7562 53.7401L49.5258 16.9706C52.6499 13.8464 52.6499 8.78105 49.5258 5.65685V5.65685Z" fill="#EBEBEB"/>
<rect width="2.2" height="2.15947" transform="matrix(-0.707107 -0.707107 -0.707107 0.707107 3.08264 43.9)" fill="#EBEBEB"/>
</svg>
