<svg width="113" height="78" viewBox="0 0 113 78" fill="none" xmlns="http://www.w3.org/2000/svg">
<rect x="13.1243" y="10.7306" width="6.57459" height="66.7694" fill="#00FFC3" stroke="#00FFC3"/>
<rect x="13.1243" y="16.5075" width="5.77694" height="24.2486" transform="rotate(-90 13.1243 16.5075)" fill="#00FFC3" stroke="#00FFC3"/>
<rect x="15.6492" y="47.0038" width="6.90643" height="24.2486" transform="rotate(-90 15.6492 47.0038)" fill="#00FFC3" stroke="#00FFC3"/>
<rect x="13.1243" y="77.5" width="5.77694" height="24.2486" transform="rotate(-90 13.1243 77.5)" fill="#00FFC3" stroke="#00FFC3"/>
<path d="M42.7531 42.9293C41.7802 43.3593 40.7704 43.6727 39.7417 43.8665V41.885C40.6101 41.706 41.46 41.434 42.2782 41.0724C43.8691 40.3693 45.3036 39.3435 46.5046 38.0621C47.7052 36.781 48.6497 35.2688 49.2915 33.6157C49.9332 31.9626 50.2617 30.196 50.2617 28.4154C50.2617 26.6347 49.9332 24.8681 49.2915 23.2151C48.6497 21.5619 47.7052 20.0497 46.5046 18.7686C45.3036 17.4872 43.8691 16.4614 42.2782 15.7583C41.5375 15.431 40.6792 15.0895 39.7417 14.8462V12.9642C40.7703 13.158 41.7802 13.4714 42.7531 13.9014C44.5063 14.6763 46.1102 15.8168 47.4687 17.2663C48.8275 18.7162 49.9133 20.4461 50.6567 22.3611C51.4002 24.2762 51.7846 26.3339 51.7846 28.4154C51.7846 30.4968 51.4002 32.5545 50.6567 34.4697C49.9133 36.3846 48.8275 38.1145 47.4687 39.5644C46.1102 41.0139 44.5063 42.1544 42.7531 42.9293Z" fill="#00FFC3" stroke="#00FFC3" stroke-width="5"/>
<mask id="path-6-inside-1_1_51" fill="white">
<path d="M37.2417 78C39.8114 78 42.3559 77.5179 44.73 76.5814C47.104 75.6448 49.2611 74.272 51.0782 72.5415C52.8952 70.8109 54.3365 68.7564 55.3199 66.4953C56.3033 64.2342 56.8094 61.8108 56.8094 59.3634C56.8094 56.916 56.3033 54.4926 55.3199 52.2315C54.3365 49.9704 52.8952 47.9159 51.0782 46.1853C49.2611 44.4548 47.104 43.082 44.7299 42.1454C42.3559 41.2089 39.8114 40.7268 37.2417 40.7268L37.2417 47.5035C38.877 47.5035 40.4962 47.8103 42.007 48.4063C43.5178 49.0023 44.8906 49.8759 46.0469 50.9772C47.2032 52.0785 48.1204 53.3859 48.7462 54.8248C49.372 56.2637 49.6941 57.8059 49.6941 59.3634C49.6941 60.9209 49.372 62.4631 48.7462 63.902C48.1204 65.3409 47.2032 66.6483 46.0469 67.7496C44.8906 68.8509 43.5178 69.7245 42.007 70.3205C40.4962 70.9165 38.877 71.2233 37.2417 71.2233V78Z"/>
</mask>
<path d="M37.2417 78C39.8114 78 42.3559 77.5179 44.73 76.5814C47.104 75.6448 49.2611 74.272 51.0782 72.5415C52.8952 70.8109 54.3365 68.7564 55.3199 66.4953C56.3033 64.2342 56.8094 61.8108 56.8094 59.3634C56.8094 56.916 56.3033 54.4926 55.3199 52.2315C54.3365 49.9704 52.8952 47.9159 51.0782 46.1853C49.2611 44.4548 47.104 43.082 44.7299 42.1454C42.3559 41.2089 39.8114 40.7268 37.2417 40.7268L37.2417 47.5035C38.877 47.5035 40.4962 47.8103 42.007 48.4063C43.5178 49.0023 44.8906 49.8759 46.0469 50.9772C47.2032 52.0785 48.1204 53.3859 48.7462 54.8248C49.372 56.2637 49.6941 57.8059 49.6941 59.3634C49.6941 60.9209 49.372 62.4631 48.7462 63.902C48.1204 65.3409 47.2032 66.6483 46.0469 67.7496C44.8906 68.8509 43.5178 69.7245 42.007 70.3205C40.4962 70.9165 38.877 71.2233 37.2417 71.2233V78Z" stroke="#00FFC3" stroke-width="5" mask="url(#path-6-inside-1_1_51)"/>
<rect x="13.1243" y="71.7231" width="55.8094" height="5.77694" fill="#00FFC3" stroke="#00FFC3"/>
<rect x="0.5" y="71.7231" width="55.8094" height="5.77694" fill="#00FFC3" stroke="#00FFC3"/>
<rect x="0.5" y="10.7306" width="35.6105" height="5.77694" fill="#00FFC3" stroke="#00FFC3"/>
<path d="M19.7776 40.9553L36.6508 25.8589C37.1603 25.4031 37.9009 25.222 38.5987 25.3826C39.1257 25.5039 39.5765 25.8088 39.8507 26.2293L43.0224 31.0938C43.1993 31.3652 43.0357 31.7126 42.695 31.7888L42.1644 31.9075C41.9707 31.9508 41.7663 31.8925 41.6364 31.7569L41.4233 31.5344C39.5501 29.5791 36.1779 29.5553 34.2705 31.4839L22.5743 43.3094C21.8408 44.0511 20.5603 44.086 19.7776 43.3858C19.0274 42.7146 19.0274 41.6265 19.7776 40.9553Z" fill="#00FFC3" stroke="#00FFC3"/>
<path d="M19.7858 46.1214L40.1866 64.3739C40.6869 64.8215 41.4004 65.0217 42.0968 64.91C42.7254 64.8092 43.272 64.4648 43.59 63.9693L47.5924 57.7333L45.2584 58.0813C45.1432 58.0985 45.0377 58.1494 44.9583 58.2261L44.5458 58.6249C42.6518 60.456 39.4092 60.4371 37.5421 58.5839L22.5876 43.7412C21.8467 43.0058 20.5682 42.9762 19.7858 43.6762C19.0311 44.3514 19.0311 45.4462 19.7858 46.1214Z" fill="#00FFC3" stroke="#00FFC3"/>
<mask id="path-12-inside-2_1_51" fill="white">
<path d="M48.1408 10.0977C50.9294 11.9081 53.2755 14.3877 54.9887 17.3356C56.702 20.2836 57.7343 23.6168 58.002 27.0653C58.2697 30.5137 57.7653 33.9803 56.5296 37.1842C55.2939 40.3881 53.3617 43.2391 50.8897 45.5061L49.1586 43.3957C51.3171 41.4162 53.0043 38.9268 54.0832 36.1293C55.1622 33.3318 55.6026 30.3049 55.3689 27.2938C55.1351 24.2827 54.2337 21.3723 52.7378 18.7983C51.2418 16.2242 49.1933 14.0591 46.7584 12.4783L48.1408 10.0977Z"/>
</mask>
<path d="M48.1408 10.0977C50.9294 11.9081 53.2755 14.3877 54.9887 17.3356C56.702 20.2836 57.7343 23.6168 58.002 27.0653C58.2697 30.5137 57.7653 33.9803 56.5296 37.1842C55.2939 40.3881 53.3617 43.2391 50.8897 45.5061L49.1586 43.3957C51.3171 41.4162 53.0043 38.9268 54.0832 36.1293C55.1622 33.3318 55.6026 30.3049 55.3689 27.2938C55.1351 24.2827 54.2337 21.3723 52.7378 18.7983C51.2418 16.2242 49.1933 14.0591 46.7584 12.4783L48.1408 10.0977Z" stroke="#00FFC3" stroke-width="10" mask="url(#path-12-inside-2_1_51)"/>
<rect x="61.2651" y="42.4211" width="12.9337" height="6.1579" fill="#00FFC3"/>
<path d="M107.071 56.375V65H79.2899V57.7812C87.5191 44.3229 92.4045 36 93.9462 32.8125C95.5087 29.6042 96.2899 27.1042 96.2899 25.3125C96.2899 23.9375 96.0503 22.9167 95.5712 22.25C95.1128 21.5625 94.4045 21.2188 93.4462 21.2188C92.4878 21.2188 91.7691 21.5938 91.2899 22.3438C90.8316 23.0938 90.6024 24.5833 90.6024 26.8125V31.625H79.2899V29.7812C79.2899 26.9479 79.4357 24.7188 79.7274 23.0938C80.0191 21.4479 80.7378 19.8333 81.8837 18.25C83.0295 16.6667 84.5191 15.4688 86.3524 14.6562C88.1857 13.8438 90.3837 13.4375 92.9462 13.4375C97.967 13.4375 101.759 14.6875 104.321 17.1875C106.904 19.6667 108.196 22.8125 108.196 26.625C108.196 29.5208 107.467 32.5833 106.009 35.8125C104.571 39.0417 100.311 45.8958 93.2274 56.375H107.071Z" fill="#00FFC3"/>
</svg>
