<svg width="30" height="22" viewBox="0 0 47 42" fill="none" xmlns="http://www.w3.org/2000/svg">
<path d="M13.0002 39C13.0002 40.1046 13.8957 41 15.0002 41V41C16.1048 41 17.0002 40.1046 17.0002 39V3C17.0002 1.89543 16.1048 1 15.0002 1V1C13.8957 1 13.0002 1.89543 13.0002 3L13.0002 39Z" fill="#EBEBEB"/>
<path d="M13.5858 40.5858C14.3668 41.3668 15.6332 41.3668 16.4142 40.5858V40.5858C17.1953 39.8047 17.1953 38.5384 16.4142 37.7574L5.10051 26.4437C4.31946 25.6626 3.05313 25.6626 2.27208 26.4437V26.4437C1.49103 27.2247 1.49103 28.491 2.27208 29.2721L13.5858 40.5858Z" fill="#EBEBEB"/>
<path d="M34.6567 3C34.6567 1.89543 33.7613 1 32.6567 1V1C31.5522 1 30.6567 1.89543 30.6567 3V39C30.6567 40.1046 31.5522 41 32.6567 41V41C33.7613 41 34.6567 40.1046 34.6567 39V3Z" fill="#EBEBEB"/>
<path d="M34.0712 1.41421C33.2901 0.633165 32.0238 0.633165 31.2428 1.41421V1.41421C30.4617 2.19526 30.4617 3.46159 31.2428 4.24264L42.5565 15.5563C43.3375 16.3374 44.6039 16.3374 45.3849 15.5563V15.5563C46.166 14.7753 46.166 13.509 45.3849 12.7279L34.0712 1.41421Z" fill="#EBEBEB"/>
</svg>
