<svg width="166" height="114" viewBox="0 0 166 114" fill="none" xmlns="http://www.w3.org/2000/svg">
<rect x="19.0455" y="15.4524" width="10.1273" height="98.0476" fill="#00FFC3" stroke="#00FFC3"/>
<rect x="19.0454" y="24.3571" width="8.90476" height="36.0909" transform="rotate(-90 19.0454 24.3571)" fill="#00FFC3" stroke="#00FFC3"/>
<rect x="22.7545" y="68.9286" width="10.5556" height="36.0909" transform="rotate(-90 22.7545 68.9286)" fill="#00FFC3" stroke="#00FFC3"/>
<rect x="19.0454" y="113.5" width="8.90476" height="36.0909" transform="rotate(-90 19.0454 113.5)" fill="#00FFC3" stroke="#00FFC3"/>
<path d="M63.2838 63.7963C61.3359 64.6528 59.2908 65.2109 57.2091 65.4592V60.2516C58.7263 60.0271 60.212 59.5987 61.6294 58.9754C63.8181 58.013 65.7967 56.6068 67.4565 54.8448C69.1161 53.0832 70.4251 50.9997 71.3158 48.717C72.2064 46.4345 72.6632 43.9928 72.6632 41.5301C72.6632 39.0675 72.2064 36.6258 71.3158 34.3433C70.4251 32.0606 69.1161 29.9771 67.4565 28.2154C65.7967 26.4534 63.8181 25.0472 61.6294 24.0848C60.3236 23.5107 58.8231 22.9346 57.2091 22.6141L57.2091 17.601C59.2908 17.8494 61.3359 18.4075 63.2838 19.264C66.0076 20.4617 68.4926 22.2216 70.5927 24.451C72.6931 26.6807 74.3665 29.3357 75.5107 32.268C76.6549 35.2005 77.2455 38.3482 77.2455 41.5301C77.2455 44.7121 76.6549 47.8598 75.5107 50.7923C74.3665 53.7246 72.6931 56.3796 70.5927 58.6093C68.4926 60.8386 66.0076 62.5986 63.2838 63.7963Z" fill="#00FFC3" stroke="#00FFC3" stroke-width="5"/>
<mask id="path-6-inside-1_1_51" fill="white">
<path d="M54.7091 114C58.484 114 62.2219 113.295 65.7095 111.927C69.197 110.558 72.3659 108.551 75.0352 106.022C77.7044 103.493 79.8218 100.49 81.2664 97.1855C82.711 93.8808 83.4545 90.3389 83.4545 86.7619C83.4545 83.1849 82.711 79.643 81.2664 76.3383C79.8218 73.0337 77.7044 70.0309 75.0352 67.5017C72.3659 64.9724 69.197 62.966 65.7095 61.5972C62.2219 60.2283 58.484 59.5238 54.7091 59.5238L54.7091 69.4283C57.1113 69.4283 59.4901 69.8766 61.7095 70.7477C63.9288 71.6188 65.9454 72.8956 67.6441 74.5052C69.3427 76.1147 70.6902 78.0256 71.6095 80.1286C72.5288 82.2316 73.002 84.4856 73.002 86.7619C73.002 89.0382 72.5288 91.2922 71.6095 93.3952C70.6902 95.4982 69.3427 97.4091 67.6441 99.0186C65.9454 100.628 63.9288 101.905 61.7095 102.776C59.4901 103.647 57.1113 104.096 54.7091 104.096V114Z"/>
</mask>
<path d="M54.7091 114C58.484 114 62.2219 113.295 65.7095 111.927C69.197 110.558 72.3659 108.551 75.0352 106.022C77.7044 103.493 79.8218 100.49 81.2664 97.1855C82.711 93.8808 83.4545 90.3389 83.4545 86.7619C83.4545 83.1849 82.711 79.643 81.2664 76.3383C79.8218 73.0337 77.7044 70.0309 75.0352 67.5017C72.3659 64.9724 69.197 62.966 65.7095 61.5972C62.2219 60.2283 58.484 59.5238 54.7091 59.5238L54.7091 69.4283C57.1113 69.4283 59.4901 69.8766 61.7095 70.7477C63.9288 71.6188 65.9454 72.8956 67.6441 74.5052C69.3427 76.1147 70.6902 78.0256 71.6095 80.1286C72.5288 82.2316 73.002 84.4856 73.002 86.7619C73.002 89.0382 72.5288 91.2922 71.6095 93.3952C70.6902 95.4982 69.3427 97.4091 67.6441 99.0186C65.9454 100.628 63.9288 101.905 61.7095 102.776C59.4901 103.647 57.1113 104.096 54.7091 104.096V114Z" stroke="#00FFC3" stroke-width="8" mask="url(#path-6-inside-1_1_51)"/>
<rect x="19.0455" y="104.595" width="82.4545" height="8.90476" fill="#00FFC3" stroke="#00FFC3"/>
<rect x="0.5" y="104.595" width="82.4545" height="8.90476" fill="#00FFC3" stroke="#00FFC3"/>
<rect x="0.5" y="15.4524" width="52.7818" height="8.90476" fill="#00FFC3" stroke="#00FFC3"/>
<path d="M28.8798 59.7029L53.6671 37.6389C54.477 36.918 55.6545 36.6315 56.7638 36.8855C57.6016 37.0774 58.3183 37.5596 58.7542 38.2248L63.7437 45.8384C63.921 46.109 63.757 46.4554 63.4156 46.5314L61.7053 46.912C61.5112 46.9552 61.3063 46.8971 61.1761 46.7619L59.1947 44.7042C57.3173 42.7545 53.9375 42.7308 52.0257 44.6539L33.3465 63.4435C32.175 64.6219 30.1299 64.6775 28.8798 63.5648C27.6818 62.4984 27.6818 60.7693 28.8798 59.7029Z" fill="#00FFC3" stroke="#00FFC3"/>
<path d="M28.8919 67.563L58.8612 94.2397C59.6531 94.9446 60.7824 95.2599 61.8847 95.0839C62.8796 94.9251 63.7448 94.3829 64.2481 93.6026L70.3865 84.0874L66.2795 84.6966C66.164 84.7138 66.0582 84.7646 65.9787 84.8411L63.7952 86.9413C61.8968 88.7672 58.6469 88.7483 56.7756 86.9004L33.3645 63.7828C32.1818 62.6149 30.141 62.5678 28.8919 63.6796C27.6872 64.752 27.6872 66.4906 28.8919 67.563Z" fill="#00FFC3" stroke="#00FFC3"/>
<mask id="path-12-inside-2_1_51" fill="white">
<path d="M70.7201 14.7581C74.8167 17.4041 78.2631 21.0282 80.7799 25.3367C83.2967 29.6452 84.8132 34.5169 85.2065 39.5569C85.5998 44.597 84.8588 49.6636 83.0435 54.3461C81.2283 59.0287 78.3898 63.1955 74.7583 66.5089L72.2153 63.4244C75.3862 60.5313 77.8647 56.893 79.4497 52.8044C81.0347 48.7157 81.6817 44.2917 81.3383 39.8909C80.9949 35.4902 79.6708 31.2364 77.4732 27.4744C75.2756 23.7124 72.2663 20.5479 68.6893 18.2375L70.7201 14.7581Z"/>
</mask>
<path d="M70.7201 14.7581C74.8167 17.4041 78.2631 21.0282 80.7799 25.3367C83.2967 29.6452 84.8132 34.5169 85.2065 39.5569C85.5998 44.597 84.8588 49.6636 83.0435 54.3461C81.2283 59.0287 78.3898 63.1955 74.7583 66.5089L72.2153 63.4244C75.3862 60.5313 77.8647 56.893 79.4497 52.8044C81.0347 48.7157 81.6817 44.2917 81.3383 39.8909C80.9949 35.4902 79.6708 31.2364 77.4732 27.4744C75.2756 23.7124 72.2663 20.5479 68.6893 18.2375L70.7201 14.7581Z" stroke="#00FFC3" stroke-width="10" mask="url(#path-12-inside-2_1_51)"/>
<rect x="90" y="62" width="19" height="9" fill="#00FFC3"/>
<path d="M158.203 84.0625V97H116.531V86.1719C128.875 65.9844 136.203 53.5 138.516 48.7188C140.859 43.9062 142.031 40.1562 142.031 37.4688C142.031 35.4062 141.672 33.875 140.953 32.875C140.266 31.8438 139.203 31.3281 137.766 31.3281C136.328 31.3281 135.25 31.8906 134.531 33.0156C133.844 34.1406 133.5 36.375 133.5 39.7188V46.9375H116.531V44.1719C116.531 39.9219 116.75 36.5781 117.188 34.1406C117.625 31.6719 118.703 29.25 120.422 26.875C122.141 24.5 124.375 22.7031 127.125 21.4844C129.875 20.2656 133.172 19.6562 137.016 19.6562C144.547 19.6562 150.234 21.5312 154.078 25.2812C157.953 29 159.891 33.7188 159.891 39.4375C159.891 43.7812 158.797 48.375 156.609 53.2188C154.453 58.0625 148.062 68.3438 137.438 84.0625H158.203Z" fill="#00FFC3"/>
</svg>
