<svg width="16" height="86" viewBox="0 0 55 86" fill="none" xmlns="http://www.w3.org/2000/svg">
<path d="M48.0833 80.0832C51.2075 76.9591 51.2075 71.8937 48.0833 68.7695L16.9706 37.6568C13.8464 34.5326 8.78105 34.5326 5.65685 37.6568V37.6568C2.53266 40.781 2.53266 45.8464 5.65685 48.9705L36.7696 80.0832C39.8937 83.2074 44.9591 83.2074 48.0833 80.0832V80.0832Z" fill="#EBEBEB"/>
<path d="M49.0832 5.65685C45.9591 2.53266 40.8937 2.53266 37.7695 5.65685L6.65684 36.7696C3.53265 39.8937 3.53265 44.9591 6.65684 48.0833V48.0833C9.78103 51.2075 14.8464 51.2075 17.9705 48.0833L49.0832 16.9706C52.2074 13.8464 52.2074 8.78105 49.0832 5.65685V5.65685Z" fill="#EBEBEB"/>
</svg>
